<svg width="12" height="20" viewBox="0 0 12 20" fill="none" xmlns="http://www.w3.org/2000/svg">
<path d="M9.75 0C10.9926 0 12 1.00736 12 2.25V17.75C12 18.9926 10.9926 20 9.75 20H2.25C1.00736 20 0 18.9926 0 17.75V2.25C0 1.00736 1.00736 0 2.25 0H9.75ZM9.75 1.5H2.25C1.83579 1.5 1.5 1.83579 1.5 2.25V17.75C1.5 18.1642 1.83579 18.5 2.25 18.5H9.75C10.1642 18.5 10.5 18.1642 10.5 17.75V2.25C10.5 1.83579 10.1642 1.5 9.75 1.5ZM7.2489 15.5C7.6631 15.4994 7.9994 15.8347 8 16.2489C8.0006 16.6631 7.6653 16.9994 7.2511 17L4.7511 17.0038C4.3369 17.0044 4.0006 16.6691 4 16.2549C3.99938 15.8407 4.3347 15.5044 4.7489 15.5038L7.2489 15.5Z" fill="#4C956C"/>
</svg>
