<svg width="151" height="64" viewBox="0 0 151 64" fill="none" xmlns="http://www.w3.org/2000/svg">
<path d="M43.1385 50.8057C41.5412 50.8057 40.1721 50.4371 39.0311 49.6999C37.9077 48.9627 37.0477 47.9622 36.4509 46.6984C35.8541 45.4346 35.5557 44.0128 35.5557 42.433V11.6805H41.2428V42.433C41.2428 43.1878 41.392 43.8548 41.6904 44.4341C41.9888 44.9958 42.4715 45.2766 43.1385 45.2766C43.8406 45.2766 44.3321 44.9958 44.6129 44.4341C44.8938 43.8548 45.0342 43.1878 45.0342 42.433V11.6805H50.7213V42.433C50.7213 44.0128 50.4141 45.4346 49.7998 46.6984C49.203 47.9622 48.3341 48.9627 47.1932 49.6999C46.0698 50.4371 44.7182 50.8057 43.1385 50.8057Z" fill="#6AB080"/>
<path d="M57.5755 50.3845V11.6805H62.894L68.1599 31.8487L68.6338 33.6391H68.9497V11.6805H74.1629V50.3845H69.371L63.5786 30.2163L63.1047 28.4259H62.7887V50.3845H57.5755Z" fill="#6AB080"/>
<path d="M80.9838 50.3845V11.6805H86.6709V50.3845H80.9838Z" fill="#6AB080"/>
<path d="M109.55 53.3333C107.952 53.3333 106.654 52.9911 105.653 52.3065C104.653 51.6219 103.898 50.8759 103.389 50.0685C103.125 50.2616 102.731 50.4283 102.204 50.5688C101.695 50.7267 101.16 50.8057 100.598 50.8057C98.983 50.8057 97.6314 50.4371 96.5432 49.6999C95.4549 48.9627 94.6387 47.9622 94.0945 46.6984C93.5504 45.4346 93.2783 44.0128 93.2783 42.433V19.6319C93.2783 18.0522 93.5767 16.6304 94.1735 15.3666C94.7879 14.1028 95.6655 13.1023 96.8065 12.3651C97.9474 11.6279 99.299 11.2593 100.861 11.2593C102.441 11.2593 103.792 11.6279 104.916 12.3651C106.057 13.1023 106.926 14.1028 107.522 15.3666C108.137 16.6304 108.444 18.0522 108.444 19.6319V42.433C108.444 43.4687 108.304 44.4253 108.023 45.3029C107.759 46.163 107.452 46.8037 107.101 47.225C107.329 47.5936 107.654 47.8832 108.075 48.0938C108.497 48.3045 108.988 48.4361 109.55 48.4888V53.3333ZM100.861 45.2766C101.563 45.2766 102.055 44.9958 102.336 44.4341C102.616 43.8548 102.757 43.1878 102.757 42.433V19.6319C102.757 18.9123 102.616 18.2628 102.336 17.6836C102.055 17.0868 101.563 16.7884 100.861 16.7884C100.177 16.7884 99.6851 17.0868 99.3867 17.6836C99.1059 18.2628 98.9654 18.9123 98.9654 19.6319V42.433C98.9654 43.1878 99.1146 43.8548 99.413 44.4341C99.7114 44.9958 100.194 45.2766 100.861 45.2766Z" fill="#6AB080"/>
<path d="M122.63 50.8057C121.033 50.8057 119.664 50.4371 118.523 49.6999C117.399 48.9627 116.539 47.9622 115.942 46.6984C115.346 45.4346 115.047 44.0128 115.047 42.433V11.6805H120.734V42.433C120.734 43.1878 120.884 43.8548 121.182 44.4341C121.48 44.9958 121.963 45.2766 122.63 45.2766C123.332 45.2766 123.824 44.9958 124.104 44.4341C124.385 43.8548 124.526 43.1878 124.526 42.433V11.6805H130.213V42.433C130.213 44.0128 129.906 45.4346 129.291 46.6984C128.695 47.9622 127.826 48.9627 126.685 49.6999C125.561 50.4371 124.21 50.8057 122.63 50.8057Z" fill="#6AB080"/>
<path d="M137.067 50.3845V11.6805H150.074V17.5256H142.754V27.952H148.02V33.6391H142.754V44.5394H150.074V50.3845H137.067Z" fill="#6AB080"/>
<path fill-rule="evenodd" clip-rule="evenodd" d="M0 30.3529V47.4074C0 53.953 5.30628 59.2593 11.8519 59.2593C18.3974 59.2593 23.7037 53.953 23.7037 47.4074V36.7043L15.4074 34.4813V47.4074C15.4074 49.3711 13.8155 50.963 11.8519 50.963C9.88817 50.963 8.2963 49.3711 8.2963 47.4074V32.576L0 30.3529Z" fill="#457B9D"/>
<path fill-rule="evenodd" clip-rule="evenodd" d="M0 11.8519C0 5.30628 5.30628 0 11.8519 0C18.3974 0 23.7037 5.30628 23.7037 11.8519V29.3424L15.4074 27.1194V11.8519C15.4074 9.88817 13.8155 8.2963 11.8519 8.2963C9.88817 8.2963 8.2963 9.88817 8.2963 11.8519V25.214L0 22.991V11.8519Z" fill="#A8DADC"/>
<path d="M21.3333 60.4444C21.3333 58.4808 22.9252 56.8889 24.8889 56.8889C26.8526 56.8889 28.4444 58.4808 28.4444 60.4444C28.4444 62.4081 26.8526 64 24.8889 64C22.9252 64 21.3333 62.4081 21.3333 60.4444Z" fill="#A8DADC"/>
<path fill-rule="evenodd" clip-rule="evenodd" d="M0 30.3529V47.4074C0 53.953 5.30628 59.2593 11.8519 59.2593C18.3974 59.2593 23.7037 53.953 23.7037 47.4074V36.7043L15.4074 34.4813V47.4074C15.4074 49.3711 13.8155 50.963 11.8519 50.963C9.88817 50.963 8.2963 49.3711 8.2963 47.4074V32.576L0 30.3529Z" fill="#519165"/>
<path fill-rule="evenodd" clip-rule="evenodd" d="M0 11.8519C0 5.30628 5.30628 0 11.8519 0C18.3974 0 23.7037 5.30628 23.7037 11.8519V29.3424L15.4074 27.1194V11.8519C15.4074 9.88817 13.8155 8.2963 11.8519 8.2963C9.88817 8.2963 8.2963 9.88817 8.2963 11.8519V25.214L0 22.991V11.8519Z" fill="#6AB080"/>
<path d="M21.3333 60.4444C21.3333 58.4808 22.9252 56.8889 24.8889 56.8889C26.8526 56.8889 28.4444 58.4808 28.4444 60.4444C28.4444 62.4081 26.8526 64 24.8889 64C22.9252 64 21.3333 62.4081 21.3333 60.4444Z" fill="#519165"/>
</svg>
